<svg width="14" height="11" viewBox="0 0 14 11" fill="none" xmlns="http://www.w3.org/2000/svg">
<path d="M13.6667 5.37345V5.62679C13.6651 5.75906 13.6126 5.88564 13.52 5.98012L10.76 8.73345C10.729 8.7647 10.6922 8.78949 10.6515 8.80642C10.6109 8.82334 10.5673 8.83205 10.5233 8.83205C10.4793 8.83205 10.4358 8.82334 10.3952 8.80642C10.3545 8.78949 10.3177 8.7647 10.2867 8.73345L9.81334 8.26012C9.7823 8.2297 9.75764 8.1934 9.7408 8.15333C9.72397 8.11327 9.7153 8.07025 9.7153 8.02679C9.7153 7.98333 9.72397 7.9403 9.7408 7.90024C9.75764 7.86017 9.7823 7.82387 9.81334 7.79345L12.1133 5.50012L9.81334 3.20679C9.7821 3.1758 9.7573 3.13893 9.74038 3.09831C9.72346 3.05769 9.71474 3.01412 9.71474 2.97012C9.71474 2.92612 9.72346 2.88255 9.74038 2.84193C9.7573 2.80131 9.7821 2.76444 9.81334 2.73345L10.2867 2.26679C10.3177 2.23554 10.3545 2.21075 10.3952 2.19382C10.4358 2.1769 10.4793 2.16819 10.5233 2.16819C10.5673 2.16819 10.6109 2.1769 10.6515 2.19382C10.6922 2.21075 10.729 2.23554 10.76 2.26679L13.52 5.02012C13.6138 5.1138 13.6666 5.24089 13.6667 5.37345ZM1.88668 5.50012L4.18001 3.20679C4.21105 3.17637 4.23571 3.14007 4.25255 3.1C4.26939 3.05994 4.27806 3.01691 4.27806 2.97345C4.27806 2.92999 4.26939 2.88697 4.25255 2.84691C4.23571 2.80684 4.21105 2.77054 4.18001 2.74012L3.70668 2.26679C3.67569 2.23554 3.63882 2.21075 3.5982 2.19382C3.55758 2.1769 3.51401 2.16819 3.47001 2.16819C3.42601 2.16819 3.38244 2.1769 3.34182 2.19382C3.3012 2.21075 3.26433 2.23554 3.23334 2.26679L0.48001 5.02012C0.387421 5.1146 0.33488 5.24118 0.333344 5.37345V5.62679C0.33346 5.75935 0.386215 5.88644 0.48001 5.98012L3.24001 8.73345C3.271 8.7647 3.30786 8.78949 3.34848 8.80642C3.3891 8.82334 3.43267 8.83205 3.47668 8.83205C3.52068 8.83205 3.56425 8.82334 3.60487 8.80642C3.64549 8.78949 3.68236 8.7647 3.71334 8.73345L4.18668 8.26679C4.21792 8.2358 4.24272 8.19893 4.25964 8.15831C4.27656 8.11769 4.28528 8.07412 4.28528 8.03012C4.28528 7.98612 4.27656 7.94255 4.25964 7.90193C4.24272 7.86131 4.21792 7.82444 4.18668 7.79345L1.88668 5.50012ZM9.22001 0.413453L8.57334 0.166787C8.48924 0.138279 8.39741 0.143132 8.31678 0.180345C8.23615 0.217558 8.17288 0.284293 8.14001 0.366787L4.60001 10.1668C4.56999 10.2499 4.57419 10.3415 4.61169 10.4215C4.6492 10.5015 4.71693 10.5634 4.80001 10.5935L5.42668 10.8201C5.50986 10.8484 5.60074 10.8433 5.68028 10.806C5.75981 10.7687 5.82184 10.7021 5.85334 10.6201L9.39334 0.833453C9.42133 0.751189 9.41608 0.66125 9.37872 0.582797C9.34136 0.504345 9.27485 0.443582 9.19334 0.413453H9.22001Z" fill="currentColor"/>
</svg>
