<svg width="99" height="60" viewBox="0 0 99 60" fill="none" xmlns="http://www.w3.org/2000/svg">
<path opacity="0.8" fill-rule="evenodd" clip-rule="evenodd" d="M20.4141 11.1486C21.4137 8.00458 22.3439 6.04708 23.2033 5.27533C25.5832 3.13933 28.8737 4.30183 29.5733 4.46833C32.0308 5.05483 31.2317 1.19533 33.3403 0.410829C34.7454 -0.111921 35.9011 0.527079 36.8079 2.32783C37.6108 0.647829 38.8343 -0.121671 40.4784 0.0155795C42.945 0.223329 43.8082 8.51158 47.1975 6.69733C50.5875 4.88233 54.7435 4.46758 56.5188 7.16458C56.9025 7.74808 57.0495 6.84283 59.6593 3.75208C62.2691 0.660579 64.8714 -0.701421 70.2101 1.09858C72.6375 1.91608 74.6337 4.13233 76.2009 7.74658C76.2009 12.9051 80.0154 15.9591 87.6428 16.9063C99.0854 18.3276 90.2036 30.5668 76.2009 34.1511C62.1975 37.7361 29.9577 39.6711 12.4625 30.6141C0.798974 24.5773 3.4495 18.0883 20.4133 11.1486H20.4141Z" fill="url(#paint0_linear_51_29833)"/>
<path d="M49.1053 56.7336C60.7574 56.7336 70.2032 54.5584 70.2032 51.8751C70.2032 49.1918 60.7574 47.0166 49.1053 47.0166C37.4533 47.0166 28.0074 49.1918 28.0074 51.8751C28.0074 54.5584 37.4533 56.7336 49.1053 56.7336Z" fill="url(#paint1_linear_51_29833)"/>
<path opacity="0.675" fill-rule="evenodd" clip-rule="evenodd" d="M84.7246 57.9371C68.8614 61.8956 14.7149 57.3678 8.95177 55.3001C6.14671 54.2928 3.61831 52.3991 1.36732 49.6181C1.11539 49.3071 0.957028 48.9316 0.910548 48.5349C0.864069 48.1382 0.931363 47.7365 1.10466 47.3762C1.27795 47.0159 1.55017 46.7118 1.88985 46.499C2.22954 46.2861 2.62283 46.1732 3.02428 46.1733H97.6425C99.6063 51.3768 95.3003 55.2978 84.7246 57.9371Z" fill="url(#paint2_linear_51_29833)"/>
<path d="M65.295 38.8544L58.0799 30.4604C57.9093 30.2602 57.6972 30.0989 57.4582 29.9876C57.2193 29.8763 56.959 29.8175 56.6951 29.8154H41.1809C40.6487 29.8154 40.1429 30.0584 39.7961 30.4604L32.5811 38.8544V43.4624H65.295V38.8544Z" fill="url(#paint3_linear_51_29833)"/>
<path d="M63.2505 43.6322L56.9356 36.3212C56.7829 36.1485 56.5947 36.0106 56.3837 35.9168C56.1727 35.823 55.9439 35.7754 55.7128 35.7774H42.1632C41.6981 35.7774 41.2435 35.9694 40.9405 36.3212L34.6255 43.6322V47.6477H63.2505V43.6322Z" fill="url(#paint4_linear_51_29833)"/>
<path d="M65.295 48.7433C65.295 49.383 65.0055 49.9583 64.5486 50.3438L64.4559 50.4188C64.0937 50.6919 63.6515 50.8394 63.197 50.8388H34.6798C34.4219 50.8388 34.1754 50.7923 33.9478 50.7068L33.8347 50.6618C33.4616 50.4967 33.1447 50.2275 32.9222 49.8869C32.6997 49.5462 32.5812 49.1488 32.5811 48.7425V38.9048H40.5183C41.395 38.9048 42.1014 39.6225 42.1014 40.4933V40.5045C42.1014 41.376 42.816 42.0788 43.6927 42.0788H54.1833C54.6047 42.0784 55.0088 41.9119 55.307 41.6157C55.6053 41.3195 55.7734 40.9178 55.7746 40.4985C55.7746 39.624 56.4817 38.9048 57.3577 38.9048H65.2957L65.295 48.7433Z" fill="url(#paint5_linear_51_29833)"/>
<defs>
<linearGradient id="paint0_linear_51_29833" x1="51.164" y1="27.7125" x2="51.164" y2="-6.55011" gradientUnits="userSpaceOnUse">
<stop stop-color="#DEDEDE" stop-opacity="0"/>
<stop offset="1" stop-color="#A9A9A9" stop-opacity="0.3"/>
</linearGradient>
<linearGradient id="paint1_linear_51_29833" x1="46.9069" y1="56.7336" x2="46.9069" y2="47.0166" gradientUnits="userSpaceOnUse">
<stop stop-color="white" stop-opacity="0"/>
<stop offset="1" stop-color="#96A1C5" stop-opacity="0.373"/>
</linearGradient>
<linearGradient id="paint2_linear_51_29833" x1="49.5" y1="59.5071" x2="49.5" y2="43.5499" gradientUnits="userSpaceOnUse">
<stop stop-color="white" stop-opacity="0"/>
<stop offset="1" stop-color="#919191" stop-opacity="0.15"/>
</linearGradient>
<linearGradient id="paint3_linear_51_29833" x1="48.938" y1="29.8154" x2="48.938" y2="35.9498" gradientUnits="userSpaceOnUse">
<stop stop-color="#CEECFF"/>
<stop offset="1" stop-color="#40A0FF"/>
</linearGradient>
<linearGradient id="paint4_linear_51_29833" x1="52.758" y1="47.6477" x2="52.758" y2="35.1463" gradientUnits="userSpaceOnUse">
<stop stop-color="#98CBFF"/>
<stop offset="1" stop-color="#CEECFF"/>
</linearGradient>
<linearGradient id="paint5_linear_51_29833" x1="48.9384" y1="38.9048" x2="48.9384" y2="50.8388" gradientUnits="userSpaceOnUse">
<stop stop-color="#036FE3"/>
<stop offset="1" stop-color="#5FB8FD"/>
</linearGradient>
</defs>
</svg>
