<svg width="24" height="24" viewBox="0 0 24 24" fill="none" xmlns="http://www.w3.org/2000/svg">
<g id="Icon/Fill/inbox">
<path id="Mask" fill-rule="evenodd" clip-rule="evenodd" d="M8.342 5.55276C8.511 5.21376 8.858 4.99976 9.237 4.99976H14.764C15.143 4.99976 15.489 5.21376 15.658 5.55276L18.382 10.9998H16C15.448 10.9998 15 11.4478 15 11.9998V13.9998C15 14.5528 14.552 14.9998 14 14.9998H10C9.448 14.9998 9 14.5528 9 13.9998V11.9998C9 11.4478 8.552 10.9998 8 10.9998H5.618L8.342 5.55276ZM20.789 11.3418L17.447 4.65776C16.936 3.63576 15.908 2.99976 14.764 2.99976H9.236C8.092 2.99976 7.065 3.63576 6.553 4.65776L3.211 11.3418C3.073 11.6178 3 11.9278 3 12.2368V17.9998C3 19.6548 4.346 20.9998 6 20.9998H18C19.655 20.9998 21 19.6548 21 17.9998V12.2368C21 11.9278 20.927 11.6178 20.789 11.3418Z" fill="#231F20"/>
<mask id="mask0_16_21269" style="mask-type:alpha" maskUnits="userSpaceOnUse" x="3" y="2" width="18" height="19">
<path id="Mask_2" fill-rule="evenodd" clip-rule="evenodd" d="M8.342 5.55276C8.511 5.21376 8.858 4.99976 9.237 4.99976H14.764C15.143 4.99976 15.489 5.21376 15.658 5.55276L18.382 10.9998H16C15.448 10.9998 15 11.4478 15 11.9998V13.9998C15 14.5528 14.552 14.9998 14 14.9998H10C9.448 14.9998 9 14.5528 9 13.9998V11.9998C9 11.4478 8.552 10.9998 8 10.9998H5.618L8.342 5.55276ZM20.789 11.3418L17.447 4.65776C16.936 3.63576 15.908 2.99976 14.764 2.99976H9.236C8.092 2.99976 7.065 3.63576 6.553 4.65776L3.211 11.3418C3.073 11.6178 3 11.9278 3 12.2368V17.9998C3 19.6548 4.346 20.9998 6 20.9998H18C19.655 20.9998 21 19.6548 21 17.9998V12.2368C21 11.9278 20.927 11.6178 20.789 11.3418Z" fill="white"/>
</mask>
<g mask="url(#mask0_16_21269)">
<g id="&#240;&#159;&#142;&#168; Color">
<rect id="Base" width="24" height="24" fill="currentColor"/>
</g>
</g>
</g>
</svg>
