<svg width="24" height="24" viewBox="0 0 24 24" fill="none" xmlns="http://www.w3.org/2000/svg">
<path d="M2.94336 9C2.14863 9 1.49976 9.65488 1.49976 10.4509V16.5491C1.49976 17.3451 2.14863 18 2.94336 18H15.8062C16.6009 18 17.2498 17.3451 17.2498 16.5491V10.4509C17.2498 9.65488 16.6009 9 15.8062 9H2.94336ZM4.12476 11.25C4.22421 11.25 4.3196 11.2895 4.38992 11.3598C4.46025 11.4302 4.49976 11.5255 4.49976 11.625V15H6.37476C6.47421 15 6.56959 15.0395 6.63992 15.1098C6.71025 15.1802 6.74976 15.2755 6.74976 15.375C6.74976 15.4745 6.71025 15.5698 6.63992 15.6402C6.56959 15.7105 6.47421 15.75 6.37476 15.75H4.12476C4.0253 15.75 3.92993 15.7105 3.8596 15.6402C3.78928 15.5698 3.74977 15.4745 3.74976 15.375V11.625C3.74976 11.5255 3.78926 11.4302 3.85959 11.3598C3.92992 11.2895 4.0253 11.25 4.12476 11.25ZM9.18726 11.25C10.1156 11.25 10.8748 12.0091 10.8748 12.9375V14.0625C10.8748 14.9909 10.1156 15.75 9.18726 15.75C8.25887 15.75 7.49976 14.9909 7.49976 14.0625V12.9375C7.49976 12.0091 8.25887 11.25 9.18726 11.25ZM13.3123 11.25C13.8066 11.25 14.2564 11.4638 14.5647 11.8044C14.6313 11.8783 14.6659 11.9755 14.6608 12.0748C14.6557 12.1741 14.6114 12.2673 14.5376 12.334C14.4639 12.4007 14.3667 12.4354 14.2674 12.4304C14.1681 12.4255 14.0748 12.3813 14.008 12.3076C13.8367 12.1183 13.5923 12 13.3122 12C12.7864 12 12.3747 12.4116 12.3747 12.9375V14.0625C12.3747 14.5884 12.7864 15 13.3122 15C13.8381 15 14.2497 14.5884 14.2497 14.0625V13.875H13.4997C13.4003 13.875 13.3049 13.8355 13.2346 13.7652C13.1643 13.6948 13.1247 13.5995 13.1247 13.5C13.1247 13.4005 13.1643 13.3052 13.2346 13.2348C13.3049 13.1645 13.4003 13.125 13.4997 13.125H14.6247C14.7242 13.125 14.8196 13.1645 14.8899 13.2348C14.9602 13.3052 14.9997 13.4005 14.9997 13.5V14.0625C14.9997 14.9909 14.2406 15.75 13.3122 15.75C12.3839 15.75 11.6247 14.9909 11.6247 14.0625V12.9375C11.6247 12.0091 12.3839 11.25 13.3122 11.25H13.3123ZM9.18726 12C8.6614 12 8.24976 12.4116 8.24976 12.9375V14.0625C8.24976 14.5884 8.6614 15 9.18726 15C9.71312 15 10.1248 14.5884 10.1248 14.0625V12.9375C10.1248 12.4116 9.71312 12 9.18726 12Z" fill="currentColor"/>
<path d="M8.62476 1.5C7.59249 1.5 6.74976 2.34274 6.74976 3.375V8.25H15.8062C17.0129 8.25 17.9998 9.24732 17.9998 10.4509V16.5491C17.9998 17.7527 17.0129 18.75 15.8062 18.75H6.74976V20.625C6.74976 21.6573 7.59249 22.5 8.62476 22.5H20.6248C21.657 22.5 22.4998 21.6573 22.4998 20.625V7.5H17.9998C17.1752 7.5 16.4998 6.82451 16.4998 6V1.5H8.62476ZM17.2498 1.67651V6C17.2498 6.42199 17.5778 6.75 17.9998 6.75H22.2515C22.2132 6.69695 22.1736 6.64471 22.1277 6.59766L17.5178 1.87793C17.438 1.79623 17.346 1.73228 17.2498 1.67651Z" fill="currentColor"/>
</svg>
