<svg width="24" height="24" viewBox="0 0 24 24" fill="none" xmlns="http://www.w3.org/2000/svg">
<g id="Icon/Fill/pie-chart ">
<path id="Mask" fill-rule="evenodd" clip-rule="evenodd" d="M12.9349 11.9776H21.0839C21.6259 11.9776 22.0499 12.4496 21.9959 12.9886C21.4519 18.4146 16.5799 22.5666 10.8819 21.9366C6.29694 21.4306 2.56994 17.7036 2.06294 13.1186C1.43494 7.42059 5.58494 2.54759 11.0119 2.00459C11.5519 1.95059 12.0229 2.37359 12.0229 2.91559V11.0666C12.0229 11.5696 12.4309 11.9776 12.9349 11.9776ZM21.1674 10.3331H14.5004C14.0404 10.3331 13.6674 9.96109 13.6674 9.50009V2.83309C13.6674 2.37309 14.0404 2.00009 14.5004 2.00009C18.6354 2.00009 22.0004 5.36409 22.0004 9.50009C22.0004 9.96109 21.6274 10.3331 21.1674 10.3331Z" fill="#231F20"/>
<mask id="mask0_16_20637" style="mask-type:alpha" maskUnits="userSpaceOnUse" x="2" y="2" width="21" height="20">
<path id="Mask_2" fill-rule="evenodd" clip-rule="evenodd" d="M12.9349 11.9776H21.0839C21.6259 11.9776 22.0499 12.4496 21.9959 12.9886C21.4519 18.4146 16.5799 22.5666 10.8819 21.9366C6.29694 21.4306 2.56994 17.7036 2.06294 13.1186C1.43494 7.42059 5.58494 2.54759 11.0119 2.00459C11.5519 1.95059 12.0229 2.37359 12.0229 2.91559V11.0666C12.0229 11.5696 12.4309 11.9776 12.9349 11.9776ZM21.1674 10.3331H14.5004C14.0404 10.3331 13.6674 9.96109 13.6674 9.50009V2.83309C13.6674 2.37309 14.0404 2.00009 14.5004 2.00009C18.6354 2.00009 22.0004 5.36409 22.0004 9.50009C22.0004 9.96109 21.6274 10.3331 21.1674 10.3331Z" fill="white"/>
</mask>
<g mask="url(#mask0_16_20637)">
<g id="&#240;&#159;&#142;&#168; Color">
<rect id="Base" width="24" height="24" fill="currentColor"/>
</g>
</g>
</g>
</svg>
